<svg width="149" height="45" viewBox="0 0 149 45" fill="none" xmlns="http://www.w3.org/2000/svg">
<path d="M21.2483 7.94548C23.4295 7.94548 25.1977 6.16682 25.1977 3.97274C25.1977 1.77866 23.4295 0 21.2483 0C19.0671 0 17.2988 1.77866 17.2988 3.97274C17.2988 6.16682 19.0671 7.94548 21.2483 7.94548Z" fill="#00C8E8"/>
<path d="M3.94944 14.2326C6.13065 14.2326 7.89888 12.4539 7.89888 10.2598C7.89888 8.06577 6.13065 6.28711 3.94944 6.28711C1.76822 6.28711 0 8.06577 0 10.2598C0 12.4539 1.76822 14.2326 3.94944 14.2326Z" fill="#00F44F"/>
<path d="M11.6076 7.94548C13.7889 7.94548 15.5571 6.16682 15.5571 3.97274C15.5571 1.77866 13.7889 0 11.6076 0C9.42643 0 7.6582 1.77866 7.6582 3.97274C7.6582 6.16682 9.42643 7.94548 11.6076 7.94548Z" fill="#00C8E8"/>
<path d="M19.6096 26.4728C21.7908 26.4728 23.559 24.6942 23.559 22.5001C23.559 20.306 21.7908 18.5273 19.6096 18.5273C17.4284 18.5273 15.6602 20.306 15.6602 22.5001C15.6602 24.6942 17.4284 26.4728 19.6096 26.4728Z" fill="#00F44F"/>
<path d="M21.2483 45.0002C23.4295 45.0002 25.1977 43.2215 25.1977 41.0274C25.1977 38.8333 23.4295 37.0547 21.2483 37.0547C19.0671 37.0547 17.2988 38.8333 17.2988 41.0274C17.2988 43.2215 19.0671 45.0002 21.2483 45.0002Z" fill="#00C8E8"/>
<path d="M3.94944 38.7121C6.13065 38.7121 7.89888 36.9334 7.89888 34.7393C7.89888 32.5453 6.13065 30.7666 3.94944 30.7666C1.76822 30.7666 0 32.5453 0 34.7393C0 36.9334 1.76822 38.7121 3.94944 38.7121Z" fill="#00F44F"/>
<path d="M11.6076 45.0002C13.7889 45.0002 15.5571 43.2215 15.5571 41.0274C15.5571 38.8333 13.7889 37.0547 11.6076 37.0547C9.42643 37.0547 7.6582 38.8333 7.6582 41.0274C7.6582 43.2215 9.42643 45.0002 11.6076 45.0002Z" fill="#00C8E8"/>
<path d="M11.6076 20.5217C13.7889 20.5217 15.5571 18.743 15.5571 16.5489C15.5571 14.3548 13.7889 12.5762 11.6076 12.5762C9.42643 12.5762 7.6582 14.3548 7.6582 16.5489C7.6582 18.743 9.42643 20.5217 11.6076 20.5217Z" fill="#00F44F"/>
<path d="M11.6076 32.423C13.7889 32.423 15.5571 30.6444 15.5571 28.4503C15.5571 26.2562 13.7889 24.4775 11.6076 24.4775C9.42643 24.4775 7.6582 26.2562 7.6582 28.4503C7.6582 30.6444 9.42643 32.423 11.6076 32.423Z" fill="#00F44F"/>
<path d="M35.5215 9.47363H53.628V14.7097H41.7055V19.4748H52.1373V24.6865H41.7055V29.924H53.8098V35.1418H35.5215V9.47363Z" fill="white"/>
<path d="M56.1348 35.1478V16.9985H61.5658L61.7537 18.9079C63.0323 17.2819 65.2123 16.6221 67.3362 16.6221C70.7387 16.6221 74.0019 19.0237 74.0019 23.353V35.1509H68.0891V25.0521C68.0891 23.0284 66.4909 22.0653 65.0593 22.0653C63.5746 22.0653 62.0521 23.0284 62.0521 25.0521V35.1478H56.1348Z" fill="white"/>
<path d="M77.3281 16.9985H82.7592L82.947 18.9079C84.2256 17.2819 86.4056 16.6221 88.5296 16.6221C90.9353 16.6221 93.2471 17.6431 94.206 19.6485C95.6725 17.5684 98.0025 16.6221 100.278 16.6221C103.762 16.6221 107.044 18.9292 107.044 23.353V35.1509H101.123V25.0521C101.123 23.0284 99.6568 22.0653 98.1721 22.0653C96.6875 22.0653 95.1271 23.0284 95.1271 25.0521V35.1478H89.2067V25.0521C89.2067 23.0284 87.6842 22.0653 86.2556 22.0653C84.771 22.0653 83.2485 23.0284 83.2485 25.0521V35.1478H77.3281V16.9985Z" fill="white"/>
<path d="M119.217 16.6191C124.8 16.6191 128.913 20.6666 128.913 26.0672C128.913 31.4678 124.797 35.5152 119.217 35.5152C113.638 35.5152 109.521 31.4693 109.521 26.0672C109.521 20.665 113.635 16.6191 119.217 16.6191ZM119.217 30.1009C121.473 30.1009 123.051 28.3804 123.051 26.0733C123.051 23.824 121.473 22.102 119.217 22.102C116.961 22.102 115.383 23.824 115.383 26.0733C115.383 28.3804 116.961 30.1009 119.217 30.1009Z" fill="white"/>
<path d="M131.125 35.1478V16.9985H136.558L136.745 18.9079C138.024 17.2819 140.204 16.6221 142.328 16.6221C145.729 16.6221 148.994 19.0237 148.994 23.353V35.1509H143.079V25.0521C143.079 23.0284 141.481 22.0653 140.049 22.0653C138.565 22.0653 137.042 23.0284 137.042 25.0521V35.1478H131.125Z" fill="white"/>
</svg>
